<svg xmlns="http://www.w3.org/2000/svg" xmlns:xlink="http://www.w3.org/1999/xlink" width="2000" zoomAndPan="magnify" viewBox="0 0 1500 1499.999933" height="2000" preserveAspectRatio="xMidYMid meet" version="1.0"><defs><clipPath id="cac4206cd9"><path d="M 51 51 L 1449 51 L 1449 1449 L 51 1449 Z M 51 51 " clip-rule="nonzero"/></clipPath><clipPath id="426df2b493"><path d="M 749.996094 -604.308594 L 2104.304688 750 L 749.996094 2104.308594 L -604.3125 750 Z M 749.996094 -604.308594 " clip-rule="nonzero"/></clipPath><clipPath id="0f5d10069b"><path d="M 1448.996094 126.003906 L 1448.996094 1374 C 1448.996094 1415.421875 1415.417969 1449 1373.996094 1449 L 126 1449 C 84.578125 1449 51 1415.421875 51 1374 L 51 126.003906 C 51 84.582031 84.578125 51.003906 126 51.003906 L 1373.996094 51.003906 C 1415.417969 51.003906 1448.996094 84.582031 1448.996094 126.003906 Z M 1448.996094 126.003906 " clip-rule="nonzero"/></clipPath><clipPath id="c31df0ca06"><path d="M 0 0 L 1398 0 L 1398 1398 L 0 1398 Z M 0 0 " clip-rule="nonzero"/></clipPath><clipPath id="d43a94f1ad"><path d="M 698.996094 -655.308594 L 2053.304688 699 L 698.996094 2053.308594 L -655.3125 699 Z M 698.996094 -655.308594 " clip-rule="nonzero"/></clipPath><clipPath id="8bebea694f"><path d="M 1397.996094 75.003906 L 1397.996094 1323 C 1397.996094 1364.421875 1364.417969 1398 1322.996094 1398 L 75 1398 C 33.578125 1398 0 1364.421875 0 1323 L 0 75.003906 C 0 33.582031 33.578125 0.00390625 75 0.00390625 L 1322.996094 0.00390625 C 1364.417969 0.00390625 1397.996094 33.582031 1397.996094 75.003906 Z M 1397.996094 75.003906 " clip-rule="nonzero"/></clipPath><clipPath id="717ee0ec6e"><rect x="0" width="1398" y="0" height="1398"/></clipPath></defs><g clip-path="url(#cac4206cd9)"><g clip-path="url(#426df2b493)"><g clip-path="url(#0f5d10069b)"><g transform="matrix(1, 0, 0, 1, 51, 51)"><g clip-path="url(#717ee0ec6e)"><g clip-path="url(#c31df0ca06)"><g clip-path="url(#d43a94f1ad)"><g clip-path="url(#8bebea694f)"><path fill="#4f46e5" d="M 698.996094 -698.996094 L 2096.992188 699 L 698.996094 2096.996094 L -699 699 Z M 698.996094 -698.996094 " fill-opacity="1" fill-rule="nonzero"/></g></g></g></g></g></g></g></g></svg>