<svg xmlns="http://www.w3.org/2000/svg" xmlns:xlink="http://www.w3.org/1999/xlink" width="2000" zoomAndPan="magnify" viewBox="0 0 1500 1499.999933" height="2000" preserveAspectRatio="xMidYMid meet" version="1.0"><defs><clipPath id="1d14941271"><path d="M 112 75 L 1388 75 L 1388 944 L 112 944 Z M 112 75 " clip-rule="nonzero"/></clipPath><clipPath id="e6bbcc8bf0"><path d="M 794.980469 920.769531 L 1380.359375 135.140625 C 1388.867188 123.722656 1390.203125 108.484375 1383.816406 95.757812 C 1377.429688 83.03125 1364.40625 75 1350.167969 75 L 150.167969 75 C 135.929688 75 122.910156 83.03125 116.523438 95.757812 C 110.136719 108.484375 111.472656 123.722656 119.980469 135.140625 L 705.359375 920.769531 C 715.90625 934.925781 732.519531 943.265625 750.167969 943.265625 C 767.820312 943.265625 784.433594 934.925781 794.980469 920.769531 Z M 794.980469 920.769531 " clip-rule="nonzero"/></clipPath><clipPath id="142c4b2cb9"><path d="M 0 0 L 1276 0 L 1276 868.441406 L 0 868.441406 Z M 0 0 " clip-rule="nonzero"/></clipPath><clipPath id="e6bd291b5b"><path d="M 682.980469 845.769531 L 1268.359375 60.140625 C 1276.867188 48.722656 1278.203125 33.484375 1271.816406 20.757812 C 1265.429688 8.03125 1252.40625 0 1238.167969 0 L 38.167969 0 C 23.929688 0 10.910156 8.03125 4.523438 20.757812 C -1.863281 33.484375 -0.527344 48.722656 7.980469 60.140625 L 593.359375 845.769531 C 603.90625 859.925781 620.519531 868.265625 638.167969 868.265625 C 655.820312 868.265625 672.433594 859.925781 682.980469 845.769531 Z M 682.980469 845.769531 " clip-rule="nonzero"/></clipPath><clipPath id="0542a1d94c"><rect x="0" width="1276" y="0" height="869"/></clipPath><clipPath id="e70ad68759"><path d="M 290.171875 1006.4375 L 1210.683594 1006.4375 L 1210.683594 1425 L 290.171875 1425 Z M 290.171875 1006.4375 " clip-rule="nonzero"/></clipPath><clipPath id="b1f0560483"><path d="M 1210.167969 1425 C 1210.167969 1197.015625 1000.722656 1006.4375 750.167969 1006.4375 C 499.613281 1006.4375 290.171875 1197.015625 290.171875 1425 Z M 1210.167969 1425 " clip-rule="nonzero"/></clipPath><clipPath id="d0e98accdb"><path d="M 0.171875 0.4375 L 920.320312 0.4375 L 920.320312 419 L 0.171875 419 Z M 0.171875 0.4375 " clip-rule="nonzero"/></clipPath><clipPath id="761ae3e58f"><path d="M 920.167969 419 C 920.167969 191.015625 710.722656 0.4375 460.167969 0.4375 C 209.613281 0.4375 0.171875 191.015625 0.171875 419 Z M 920.167969 419 " clip-rule="nonzero"/></clipPath><clipPath id="145fe46e88"><rect x="0" width="921" y="0" height="419"/></clipPath><clipPath id="e9829a80bf"><path d="M 959 595 L 1461 595 L 1461 1097 L 959 1097 Z M 959 595 " clip-rule="nonzero"/></clipPath><clipPath id="d47397943b"><path d="M 936.59375 618.746094 L 1437.074219 572.078125 L 1483.742188 1072.554688 L 983.261719 1119.222656 Z M 936.59375 618.746094 " clip-rule="nonzero"/></clipPath><clipPath id="9c4b02efc0"><path d="M 1241.695312 612.558594 L 1433.410156 771.570312 C 1448.722656 784.269531 1458.359375 802.53125 1460.207031 822.335938 C 1462.054688 842.140625 1455.957031 861.867188 1443.257812 877.179688 L 1284.25 1068.894531 C 1271.550781 1084.203125 1253.289062 1093.84375 1233.484375 1095.691406 C 1213.679688 1097.535156 1193.949219 1091.441406 1178.640625 1078.742188 L 986.925781 919.730469 C 971.613281 907.03125 961.976562 888.769531 960.128906 868.964844 C 958.28125 849.160156 964.378906 829.433594 977.078125 814.121094 L 1136.089844 622.40625 C 1148.785156 607.097656 1167.046875 597.457031 1186.851562 595.609375 C 1206.65625 593.765625 1226.386719 599.859375 1241.695312 612.558594 Z M 1241.695312 612.558594 " clip-rule="nonzero"/></clipPath><clipPath id="a994388738"><path d="M 0 0 L 502 0 L 502 502 L 0 502 Z M 0 0 " clip-rule="nonzero"/></clipPath><clipPath id="fc521f82ed"><path d="M -22.40625 23.746094 L 478.074219 -22.921875 L 524.742188 477.554688 L 24.261719 524.222656 Z M -22.40625 23.746094 " clip-rule="nonzero"/></clipPath><clipPath id="22cfd7ed0e"><path d="M 282.695312 17.558594 L 474.410156 176.570312 C 489.722656 189.269531 499.359375 207.53125 501.207031 227.335938 C 503.054688 247.140625 496.957031 266.867188 484.257812 282.179688 L 325.25 473.894531 C 312.550781 489.203125 294.289062 498.84375 274.484375 500.691406 C 254.679688 502.535156 234.949219 496.441406 219.640625 483.742188 L 27.925781 324.730469 C 12.613281 312.03125 2.976562 293.769531 1.128906 273.964844 C -0.71875 254.160156 5.378906 234.433594 18.078125 219.121094 L 177.089844 27.40625 C 189.785156 12.097656 208.046875 2.457031 227.851562 0.609375 C 247.65625 -1.234375 267.386719 4.859375 282.695312 17.558594 Z M 282.695312 17.558594 " clip-rule="nonzero"/></clipPath><clipPath id="b1e8aa8af0"><rect x="0" width="502" y="0" height="502"/></clipPath><clipPath id="1c0b33faef"><path d="M 39 595 L 541 595 L 541 1097 L 39 1097 Z M 39 595 " clip-rule="nonzero"/></clipPath><clipPath id="7d8e12065b"><path d="M 63.628906 572.113281 L 564.046875 619.449219 L 516.710938 1119.867188 L 16.292969 1072.53125 Z M 63.628906 572.113281 " clip-rule="nonzero"/></clipPath><clipPath id="36f68267fb"><path d="M 364.546875 622.847656 L 523.304688 814.773438 C 535.980469 830.101562 542.050781 849.835938 540.179688 869.640625 C 538.304688 889.441406 528.640625 907.6875 513.316406 920.367188 L 321.386719 1079.121094 C 306.0625 1091.800781 286.324219 1097.871094 266.523438 1095.996094 C 246.71875 1094.125 228.472656 1084.460938 215.792969 1069.132812 L 57.039062 877.207031 C 44.359375 861.878906 38.289062 842.144531 40.164062 822.339844 C 42.035156 802.539062 51.699219 784.289062 67.027344 771.613281 L 258.953125 612.855469 C 274.28125 600.179688 294.015625 594.109375 313.820312 595.980469 C 333.621094 597.855469 351.871094 607.519531 364.546875 622.847656 Z M 364.546875 622.847656 " clip-rule="nonzero"/></clipPath><clipPath id="47cbf836cd"><path d="M 0 0 L 502 0 L 502 502 L 0 502 Z M 0 0 " clip-rule="nonzero"/></clipPath><clipPath id="e9a8b60f54"><path d="M 24.628906 -22.886719 L 525.046875 24.449219 L 477.710938 524.867188 L -22.707031 477.53125 Z M 24.628906 -22.886719 " clip-rule="nonzero"/></clipPath><clipPath id="7c8c2bca6c"><path d="M 325.546875 27.847656 L 484.304688 219.773438 C 496.980469 235.101562 503.050781 254.835938 501.179688 274.640625 C 499.304688 294.441406 489.640625 312.6875 474.316406 325.367188 L 282.386719 484.121094 C 267.0625 496.800781 247.324219 502.871094 227.523438 500.996094 C 207.71875 499.125 189.472656 489.460938 176.792969 474.132812 L 18.039062 282.207031 C 5.359375 266.878906 -0.710938 247.144531 1.164062 227.339844 C 3.035156 207.539062 12.699219 189.289062 28.027344 176.613281 L 219.953125 17.855469 C 235.28125 5.179688 255.015625 -0.890625 274.820312 0.980469 C 294.621094 2.855469 312.871094 12.519531 325.546875 27.847656 Z M 325.546875 27.847656 " clip-rule="nonzero"/></clipPath><clipPath id="4ee61684b9"><rect x="0" width="502" y="0" height="502"/></clipPath></defs><g clip-path="url(#1d14941271)"><g clip-path="url(#e6bbcc8bf0)"><g transform="matrix(1, 0, 0, 1, 112, 75)"><g clip-path="url(#0542a1d94c)"><g clip-path="url(#142c4b2cb9)"><g clip-path="url(#e6bd291b5b)"><rect x="-442" width="2160" fill="#4f46e5" height="2159.999904" y="-404.999985" fill-opacity="1"/></g></g></g></g></g></g><g clip-path="url(#e70ad68759)"><g clip-path="url(#b1f0560483)"><g transform="matrix(1, 0, 0, 1, 290, 1006)"><g clip-path="url(#145fe46e88)"><g clip-path="url(#d0e98accdb)"><g clip-path="url(#761ae3e58f)"><path fill="#4f46e5" d="M 0.171875 0.4375 L 920.683594 0.4375 L 920.683594 419 L 0.171875 419 Z M 0.171875 0.4375 " fill-opacity="1" fill-rule="nonzero"/></g></g></g></g></g></g><g clip-path="url(#e9829a80bf)"><g clip-path="url(#d47397943b)"><g clip-path="url(#9c4b02efc0)"><g transform="matrix(1, 0, 0, 1, 959, 595)"><g clip-path="url(#b1e8aa8af0)"><g clip-path="url(#a994388738)"><g clip-path="url(#fc521f82ed)"><g clip-path="url(#22cfd7ed0e)"><path fill="#4f46e5" d="M -56.003906 -4.121094 L 505.9375 -56.519531 L 558.339844 505.421875 L -3.601562 557.820312 Z M -56.003906 -4.121094 " fill-opacity="1" fill-rule="nonzero"/></g></g></g></g></g></g></g></g><g clip-path="url(#1c0b33faef)"><g clip-path="url(#7d8e12065b)"><g clip-path="url(#36f68267fb)"><g transform="matrix(1, 0, 0, 1, 39, 595)"><g clip-path="url(#4ee61684b9)"><g clip-path="url(#47cbf836cd)"><g clip-path="url(#e9a8b60f54)"><g clip-path="url(#7c8c2bca6c)"><path fill="#4f46e5" d="M -3.191406 -56.519531 L 558.679688 -3.371094 L 505.53125 558.5 L -56.339844 505.351562 Z M -3.191406 -56.519531 " fill-opacity="1" fill-rule="nonzero"/></g></g></g></g></g></g></g></g></svg>